# Blender 4.0.2
# www.blender.org
o Plane
v 0.000000  50.000000  50.000000
v 0.000000 -50.000000  50.000000
v 0.000000  50.000000 -50.000000
v 0.000000 -50.000000 -50.000000
v 0.000000  49.216705 -49.216705
v 0.000000  49.216705  49.216705
v 0.000000 -49.216705  49.216705
v 0.000000 -49.216705 -49.216705
v 0.000000   0.000000   0.000000
vn 1.0000 0.0000 0.0000
vt 1.000000 0.000000
vt 0.007931 0.007931
vt 0.000000 0.000000
vt 0.000000 1.000000
vt 0.992069 0.992069
vt 1.000000 1.000000
vt 0.992068 0.007931
vt 0.007931 0.992069
vt 0.500000 0.500000
s 0
f 4/1/1 7/2/1 2/3/1
f 1/4/1 5/5/1 3/6/1
f 3/6/1 8/7/1 4/1/1
f 2/3/1 6/8/1 1/4/1
f 7/2/1 8/7/1 9/9/1
f 5/5/1 6/8/1 9/9/1
f 6/8/1 7/2/1 9/9/1
f 8/7/1 5/5/1 9/9/1
f 4/1/1 8/7/1 7/2/1
f 1/4/1 6/8/1 5/5/1
f 3/6/1 5/5/1 8/7/1
f 2/3/1 7/2/1 6/8/1
